<svg width="160" height="51" viewBox="0 0 160 51" fill="none" xmlns="http://www.w3.org/2000/svg">
<g clip-path="url(#clip0_100_310)">
<path d="M63.1447 24.309L66.0907 9.86869H68.6361V30.9544H66.2005V19.121L64.0298 30.9544H62.3113L60.0824 19.121V30.9544H57.6274V9.86869H60.1664L63.1447 24.309Z" fill="#252526"/>
<path d="M84.6319 13.9651C84.6319 11.0116 85.8465 9.53695 88.2756 9.54123C90.7047 9.54551 91.9215 11.0201 91.9258 13.9651V16.7967H89.3868V13.9651C89.3868 13.0149 89.0186 12.5397 88.2821 12.5333C87.552 12.5333 87.1838 13.0084 87.1838 13.9651V15.8914C87.1838 16.8288 87.9763 17.9781 89.5612 19.3393C90.301 19.92 90.8991 20.6594 91.3108 21.5022C91.7225 22.345 91.9371 23.2694 91.9387 24.2062V26.8708C91.9387 29.8287 90.7241 31.3076 88.295 31.3076C85.8659 31.3076 84.6448 29.8244 84.6319 26.858V24.02H87.1709V26.858C87.1709 27.8083 87.5456 28.2834 88.2821 28.2834C89.0186 28.2834 89.3868 27.8083 89.3868 26.858V24.4502C89.3868 23.4293 88.5986 22.2415 87.0094 20.8803C86.2638 20.289 85.6626 19.5376 85.2508 18.6825C84.8391 17.8274 84.6275 16.8907 84.6319 15.9427V13.9651Z" fill="#252526"/>
<path d="M71.0651 13.9651C71.0651 11.0116 72.2775 9.53695 74.7023 9.54123C77.1271 9.54551 78.3439 11.0201 78.3525 13.9651V16.7967H75.8135V13.9651C75.8135 13.0149 75.4453 12.5397 74.7152 12.5333C73.9852 12.5333 73.6234 13.0084 73.6234 13.9651V15.8914C73.6234 16.8288 74.4137 17.9781 75.9944 19.3393C76.7341 19.92 77.3322 20.6594 77.7439 21.5022C78.1556 22.345 78.3703 23.2694 78.3718 24.2062V26.8708C78.3718 29.8287 77.1594 31.3076 74.7346 31.3076C72.3098 31.3076 71.0866 29.8244 71.0651 26.858V24.02H73.604V26.858C73.604 27.8083 73.9723 28.2834 74.7152 28.2834C75.4582 28.2834 75.8135 27.8083 75.8135 26.858V24.4502C75.8135 23.4315 75.0232 22.2415 73.4425 20.8803C72.6958 20.29 72.0939 19.5388 71.682 18.6834C71.2702 17.8281 71.0592 16.8909 71.0651 15.9427V13.9651Z" fill="#252526"/>
<path d="M101.158 27.3716C101.158 29.9785 99.9371 31.2883 97.508 31.2947C95.0788 31.3011 93.8643 30.0106 93.8643 27.3716V15.9748C93.8643 13.368 95.0788 12.0646 97.508 12.0646C99.9371 12.0646 101.158 13.3487 101.158 15.9748V27.3716ZM98.6192 15.9748C98.6192 15.1337 98.2509 14.6907 97.5144 14.6907C96.7779 14.6907 96.4162 15.108 96.4162 15.9748V27.3716C96.4162 28.2128 96.7844 28.6558 97.5209 28.6558C98.2574 28.6558 98.6321 28.2384 98.6321 27.3716L98.6192 15.9748Z" fill="#252526"/>
<path d="M103.309 30.9544V12.3343H105.842V28.2962H109.892V30.9544H103.309Z" fill="#252526"/>
<path d="M118.614 27.3716C118.614 29.9785 117.397 31.2862 114.964 31.2947C112.53 31.3033 111.318 29.9956 111.327 27.3716V12.3535H113.859V27.3716C113.859 28.2128 114.227 28.6558 114.964 28.6558C115.7 28.6558 116.075 28.2384 116.075 27.3716V12.3535H118.614V27.3716Z" fill="#252526"/>
<path d="M127.426 12.3214V14.9668H125.055V30.9544H122.516V14.9668H120.165V12.3214H127.426Z" fill="#252526"/>
<path d="M129.086 12.3214H131.625V30.9416H129.086V12.3214Z" fill="#252526"/>
<path d="M141.116 27.3716C141.116 29.9785 139.895 31.2883 137.466 31.2947C135.037 31.3011 133.822 30.0106 133.822 27.3716V15.9748C133.822 13.368 135.037 12.0646 137.466 12.0646C139.895 12.0646 141.116 13.3487 141.116 15.9748V27.3716ZM138.577 15.9748C138.577 15.1337 138.209 14.6907 137.472 14.6907C136.742 14.6907 136.381 15.108 136.381 15.9748V27.3716C136.381 28.2128 136.749 28.6558 137.485 28.6558C138.222 28.6558 138.597 28.2384 138.597 27.3716L138.577 15.9748Z" fill="#252526"/>
<path d="M143.261 12.3214H145.806L148.203 23.1147V12.3214H150.529V30.9416H147.99L145.703 20.4822V30.9544H143.261V12.3214Z" fill="#252526"/>
<path d="M152.706 15.9748C152.706 13.368 153.921 12.0646 156.35 12.0646C158.779 12.0646 160 13.3487 160 15.9748V18.4789H157.461V15.9748C157.461 15.1337 157.093 14.6907 156.356 14.6907C155.626 14.6907 155.258 15.108 155.258 15.9748V17.6571C155.258 18.4918 156.053 19.5062 157.635 20.7133C158.353 21.1897 158.944 21.8326 159.356 22.5866C159.768 23.3406 159.989 24.183 160 25.0409V27.3909C160 30.002 158.785 31.3097 156.356 31.314C153.927 31.314 152.706 29.9977 152.706 27.3909V24.8868H155.245V27.3909C155.245 28.232 155.613 28.6751 156.356 28.6751C157.099 28.6751 157.461 28.2577 157.461 27.3909V25.2464C157.461 24.3389 156.668 23.2859 155.084 22.0874C154.361 21.6066 153.768 20.9586 153.353 20.1991C152.939 19.4396 152.717 18.5915 152.706 17.7277V15.9748Z" fill="#252526"/>
<path d="M59.7267 39.5711L61.0188 34.1199H61.8458V41.3304H61.0576V36.1938L59.9981 41.3304H59.4812L58.3894 36.2515V41.3304H57.6206V34.1199H58.4475L59.7267 39.5711Z" fill="#ADACAC"/>
<path d="M66.0712 40.0141C66.0712 40.9772 65.619 41.4588 64.7145 41.4652C63.81 41.4716 63.3643 40.9772 63.3643 40.0141V35.4682C63.3643 34.4987 63.8165 34.0171 64.7145 34.0171C65.6125 34.0171 66.0712 34.4987 66.0712 35.4682V40.0141ZM65.2507 35.4682C65.2507 35.0402 65.0698 34.8261 64.708 34.8261C64.3398 34.8261 64.1589 35.0316 64.1589 35.4682V40.0141C64.1589 40.4314 64.3398 40.6562 64.708 40.6562C65.0763 40.6562 65.2572 40.4571 65.2572 40.0141L65.2507 35.4682Z" fill="#ADACAC"/>
<path d="M67.6152 34.1199H68.4357L69.5921 39.295V34.1584H70.3157V41.3304H69.4952L68.3776 36.2772V41.3304H67.6152V34.1199Z" fill="#ADACAC"/>
<path d="M71.9307 34.1199H74.3533V34.9481H72.7318V37.311H74.1272V38.1392H72.7318V40.5021H74.3533V41.3304H71.9307V34.1199Z" fill="#ADACAC"/>
<path d="M78.2231 34.1199V34.9481H77.2669V41.3304H76.4723V34.9481H75.5161V34.1199H78.2231Z" fill="#ADACAC"/>
<path d="M79.5732 34.1199H80.3743V41.3304H79.5732V34.1199Z" fill="#ADACAC"/>
<path d="M84.6322 40.0141C84.6322 40.9772 84.18 41.4588 83.2755 41.4652C82.3711 41.4716 81.9253 40.9772 81.9253 40.0141V35.4682C81.9253 34.4987 82.3775 34.0171 83.2755 34.0171C84.1735 34.0171 84.6322 34.4987 84.6322 35.4682V36.3543H83.8311V35.4682C83.8311 35.0573 83.6438 34.8261 83.282 34.8261C82.9202 34.8261 82.7393 35.0402 82.7393 35.4682V40.0141C82.7393 40.4314 82.9202 40.6562 83.2885 40.6562C83.6567 40.6562 83.8441 40.4571 83.8441 40.0141V39.128H84.6322V40.0141Z" fill="#ADACAC"/>
<path d="M86.0791 35.4682C86.0791 34.4987 86.5313 34.0171 87.4358 34.0171C88.3403 34.0171 88.786 34.4987 88.786 35.4682V36.3543H87.9849V35.4682C87.9849 35.0573 87.804 34.8261 87.4358 34.8261C87.074 34.8261 86.8867 35.0316 86.8867 35.4682V36.1103C86.8867 36.4827 87.2226 36.9193 87.888 37.3944C88.1596 37.574 88.3836 37.816 88.5411 38.0999C88.6985 38.3838 88.7848 38.7012 88.7925 39.0253V39.9627C88.7925 40.9258 88.3403 41.4138 87.4423 41.4138C86.5443 41.4138 86.0856 40.9258 86.0856 39.9627V39.128H86.8867V40.0141C86.8867 40.4314 87.074 40.6562 87.4423 40.6562C87.8105 40.6562 87.9914 40.4571 87.9914 40.0141V39.1666C87.9914 38.7685 87.6619 38.319 86.99 37.8182C86.7157 37.6354 86.49 37.3892 86.3325 37.1006C86.175 36.8121 86.0902 36.4899 86.0856 36.1617L86.0791 35.4682Z" fill="#ADACAC"/>
<path d="M92.7334 35.4682C92.7334 34.4987 93.1856 34.0171 94.0901 34.0171C94.9946 34.0171 95.4403 34.4987 95.4403 35.4682V36.3543H94.6392V35.4682C94.6392 35.0573 94.4583 34.8261 94.0901 34.8261C93.7219 34.8261 93.541 35.0316 93.541 35.4682V36.1103C93.541 36.4827 93.8769 36.9193 94.5423 37.3944C94.8139 37.574 95.0379 37.816 95.1954 38.0999C95.3528 38.3838 95.4391 38.7012 95.4468 39.0253V39.9627C95.4468 40.9258 94.9946 41.4138 94.0966 41.4138C93.1986 41.4138 92.7399 40.9258 92.7399 39.9627V39.128H93.541V40.0141C93.541 40.4314 93.7283 40.6562 94.0966 40.6562C94.4648 40.6562 94.6457 40.4571 94.6457 40.0141V39.1666C94.6457 38.7685 94.3098 38.319 93.6443 37.8182C93.37 37.6354 93.1444 37.3892 92.9868 37.1006C92.8293 36.8121 92.7445 36.4899 92.7399 36.1617L92.7334 35.4682Z" fill="#ADACAC"/>
<path d="M96.9844 34.1199H99.4071V34.9481H97.7855V37.311H99.1809V38.1392H97.7855V40.5021H99.4071V41.3304H96.9844V34.1199Z" fill="#ADACAC"/>
<path d="M100.848 34.1199H102.217C103.051 34.1199 103.464 34.6078 103.464 35.5709V36.6881C103.481 36.9545 103.409 37.219 103.26 37.4407C103.11 37.6624 102.892 37.8289 102.637 37.9145L103.761 41.3304H102.876L101.959 38.0493L101.649 38.0943V41.3047H100.848V34.1199ZM101.649 34.9481V37.311H101.985C102.098 37.3162 102.211 37.3032 102.321 37.2724C102.432 37.2223 102.524 37.1392 102.586 37.0345C102.647 36.9298 102.674 36.8088 102.663 36.6881V35.5709C102.663 35.1536 102.482 34.9289 102.114 34.9289L101.649 34.9481Z" fill="#ADACAC"/>
<path d="M106.889 41.3304H105.68L104.97 36.5983L104.66 34.0942H105.467L106.281 40.5791L107.095 34.0942H107.89L107.567 36.6047L106.889 41.3304Z" fill="#ADACAC"/>
<path d="M109.227 34.1199H110.028V41.3304H109.227V34.1199Z" fill="#ADACAC"/>
<path d="M114.292 40.0141C114.292 40.9772 113.84 41.4588 112.942 41.4652C112.044 41.4716 111.585 40.9772 111.585 40.0141V35.4682C111.585 34.4987 112.037 34.0171 112.942 34.0171C113.846 34.0171 114.292 34.4987 114.292 35.4682V36.3543H113.491V35.4682C113.491 35.0573 113.31 34.8261 112.942 34.8261C112.58 34.8261 112.393 35.0316 112.393 35.4682V40.0141C112.393 40.4314 112.58 40.6562 112.948 40.6562C113.316 40.6562 113.497 40.4571 113.497 40.0141V39.128H114.298L114.292 40.0141Z" fill="#ADACAC"/>
<path d="M115.804 34.1199H118.226V34.9481H116.605V37.311H118V38.1392H116.605V40.5021H118.226V41.3304H115.804V34.1199Z" fill="#ADACAC"/>
<path d="M119.596 35.4682C119.596 34.4987 120.048 34.0171 120.946 34.0171C121.844 34.0171 122.303 34.4987 122.303 35.4682V36.3543H121.502V35.4682C121.502 35.0573 121.315 34.8261 120.953 34.8261C120.585 34.8261 120.404 35.0316 120.404 35.4682V36.1103C120.404 36.4827 120.733 36.9193 121.399 37.3944C121.672 37.5725 121.898 37.8139 122.057 38.0981C122.215 38.3822 122.302 38.7004 122.31 39.0253V39.9627C122.31 40.9258 121.857 41.4138 120.959 41.4138C120.061 41.4138 119.603 40.9258 119.603 39.9627V39.128H120.404V40.0141C120.404 40.4314 120.585 40.6562 120.959 40.6562C121.334 40.6562 121.508 40.4571 121.508 40.0141V39.1666C121.508 38.7685 121.173 38.319 120.507 37.8182C120.233 37.6354 120.007 37.3892 119.85 37.1006C119.692 36.8121 119.607 36.4899 119.603 36.1617L119.596 35.4682Z" fill="#ADACAC"/>
<path d="M126.244 35.4682C126.244 34.4987 126.696 34.0171 127.601 34.0171C128.505 34.0171 128.951 34.4987 128.951 35.4682V36.3543H128.15V35.4682C128.15 35.0402 127.969 34.8261 127.607 34.8261C127.246 34.8261 127.065 35.0402 127.065 35.4682V36.1103C127.065 36.4827 127.394 36.9193 128.06 37.3944C128.332 37.5728 128.557 37.8145 128.715 38.0987C128.872 38.3828 128.958 38.7009 128.964 39.0253V39.9627C128.964 40.9258 128.518 41.4138 127.62 41.4138C126.722 41.4138 126.257 40.9258 126.257 39.9627V39.128H127.065V40.0141C127.065 40.4314 127.246 40.6562 127.62 40.6562C127.995 40.6562 128.163 40.4571 128.163 40.0141V39.1666C128.163 38.7685 127.833 38.319 127.168 37.8182C126.892 37.6365 126.665 37.3907 126.506 37.102C126.347 36.8134 126.262 36.4906 126.257 36.1617L126.244 35.4682Z" fill="#ADACAC"/>
<path d="M133.131 40.0141C133.131 40.9772 132.685 41.4588 131.78 41.4652C130.876 41.4716 130.43 40.9772 130.43 40.0141V35.4682C130.43 34.4987 130.876 34.0171 131.78 34.0171C132.685 34.0171 133.131 34.4987 133.131 35.4682V40.0141ZM132.336 35.4682C132.336 35.0573 132.149 34.8261 131.78 34.8261C131.412 34.8261 131.225 35.0316 131.225 35.4682V40.0141C131.225 40.4314 131.412 40.6562 131.78 40.6562C132.149 40.6562 132.336 40.4571 132.336 40.0141V35.4682Z" fill="#ADACAC"/>
<path d="M134.681 41.3304V34.1199H135.476V40.5021H137.097V41.3304H134.681Z" fill="#ADACAC"/>
<path d="M141.071 40.0141C141.071 40.9772 140.618 41.4588 139.72 41.4652C138.822 41.4716 138.364 40.9772 138.364 40.0141V34.1327H139.165V40.0141C139.165 40.425 139.352 40.6562 139.72 40.6562C140.089 40.6562 140.27 40.4507 140.27 40.0141V34.1327H141.071V40.0141Z" fill="#ADACAC"/>
<path d="M145.076 34.1199V34.9481H144.126V41.3304H143.325V34.9481H142.369V34.1199H145.076Z" fill="#ADACAC"/>
<path d="M146.433 34.1199H147.234V41.3304H146.433V34.1199Z" fill="#ADACAC"/>
<path d="M151.498 40.0141C151.498 40.9772 151.046 41.4588 150.148 41.4652C149.25 41.4716 148.791 40.9772 148.791 40.0141V35.4682C148.791 34.4987 149.243 34.0171 150.148 34.0171C151.052 34.0171 151.498 34.4987 151.498 35.4682V40.0141ZM150.697 35.4682C150.697 35.0573 150.516 34.8261 150.148 34.8261C149.786 34.8261 149.599 35.0316 149.599 35.4682V40.0141C149.599 40.4314 149.786 40.6562 150.154 40.6562C150.522 40.6562 150.703 40.4571 150.703 40.0141L150.697 35.4682Z" fill="#ADACAC"/>
<path d="M153.042 34.1199H153.862L155.051 39.295V34.1584H155.775V41.3304H154.954L153.83 36.2772V41.3304H153.068L153.042 34.1199Z" fill="#ADACAC"/>
<path d="M157.293 35.4682C157.293 34.4987 157.745 34.0171 158.643 34.0171C159.541 34.0171 160 34.4987 160 35.4682V36.3543H159.199V35.4682C159.199 35.0573 159.011 34.8261 158.65 34.8261C158.281 34.8261 158.101 35.0316 158.101 35.4682V36.1103C158.101 36.4827 158.436 36.9193 159.095 37.3944C159.369 37.5725 159.595 37.8139 159.754 38.0981C159.912 38.3822 159.999 38.7004 160.006 39.0253V39.9627C160.006 40.9258 159.554 41.4138 158.656 41.4138C157.758 41.4138 157.299 40.9258 157.299 39.9627V39.128H158.101V40.0141C158.101 40.4314 158.281 40.6562 158.656 40.6562C159.031 40.6562 159.205 40.4571 159.205 40.0141V39.1666C159.205 38.7685 158.869 38.319 158.204 37.8182C157.93 37.6354 157.704 37.3892 157.546 37.1006C157.389 36.8121 157.304 36.4899 157.299 36.1617L157.293 35.4682Z" fill="#ADACAC"/>
<path d="M26.3521 43.3272C26.5435 43.285 26.7379 43.2571 26.9335 43.2437C29.873 43.2437 32.819 43.2437 35.765 43.2437C35.9584 43.2502 36.1468 43.3063 36.3121 43.4064C36.4773 43.5065 36.6138 43.6473 36.7082 43.8152C37.2029 44.4185 37.8204 44.9109 38.5202 45.2601C39.22 45.6092 39.9862 45.8073 40.7685 45.8412C41.5508 45.8751 42.3315 45.744 43.0592 45.4567C43.7869 45.1694 44.4452 44.7322 44.9908 44.174C45.5364 43.6158 45.957 42.9491 46.2249 42.2179C46.4927 41.4866 46.6019 40.7073 46.5451 39.9311C46.4883 39.1549 46.2669 38.3994 45.8954 37.7144C45.5239 37.0293 45.0108 36.4301 44.3897 35.9562C44.1953 35.8375 44.0373 35.6683 43.9325 35.4669C43.8278 35.2655 43.7804 35.0395 43.7953 34.8133C43.7953 32.2065 43.7953 29.5996 43.7953 26.9928V24.1934C43.7953 21.2142 43.7953 18.2413 43.7953 15.2621C43.7889 15.0821 43.8207 14.9027 43.8886 14.7357C43.9565 14.5686 44.059 14.4177 44.1894 14.2926C44.9896 13.5425 45.5371 12.5649 45.7568 11.4937C45.9766 10.4225 45.8578 9.31001 45.4169 8.30845C45.0459 7.28945 44.3654 6.41025 43.4696 5.79253C42.5737 5.1748 41.5068 4.8491 40.4165 4.86051C39.558 4.81132 38.7007 4.97581 37.9223 5.33907C37.1439 5.70233 36.469 6.25288 35.9588 6.94083C35.8447 7.11032 35.6883 7.24739 35.5048 7.33858C35.3213 7.42976 35.117 7.47192 34.9122 7.46091C32.328 7.46091 29.7438 7.46091 27.1596 7.49943H26.3456H24.976H14.7555C14.6715 7.38386 14.5294 7.18482 14.3808 6.99219C13.8783 6.31402 13.2209 5.76419 12.4628 5.38799C11.7046 5.0118 10.8674 4.82 10.02 4.8284C8.76577 4.80517 7.54161 5.21092 6.55249 5.97771C5.56338 6.7445 4.86939 7.82576 4.58673 9.04041C4.29461 10.1691 4.37414 11.3611 4.81365 12.4415C5.25316 13.522 6.0295 14.434 7.02879 15.0438C7.23709 15.142 7.41042 15.3009 7.5258 15.4993C7.64119 15.6976 7.69316 15.9262 7.67483 16.1546C7.67483 18.7871 7.67483 21.4196 7.67483 24.0457C7.67483 24.2897 7.67483 24.5337 7.64253 24.7584V26.0875C7.64253 26.415 7.68129 26.6782 7.68129 26.9415C7.68129 29.4777 7.68129 32.0074 7.68129 34.5372C7.70303 34.7632 7.65695 34.9905 7.54888 35.1904C7.4408 35.3904 7.27557 35.5541 7.07401 35.6608C6.3808 36.0764 5.78772 36.638 5.33654 37.306C4.88537 37.974 4.58709 38.7322 4.46271 39.5273C4.33833 40.3223 4.39089 41.1347 4.61667 41.9074C4.84246 42.68 5.23598 43.394 5.76951 43.9991C6.30304 44.6043 6.96359 45.0857 7.70463 45.4096C8.44568 45.7335 9.24917 45.892 10.0585 45.8738C10.8678 45.8557 11.6633 45.6614 12.3889 45.3046C13.1145 44.9478 13.7525 44.4372 14.2581 43.8088C14.3946 43.6093 14.582 43.4495 14.8011 43.3457C15.0202 43.242 15.2631 43.1979 15.5049 43.2181C18.3992 43.2181 21.3193 43.2181 24.1813 43.2181H24.9631L26.3521 43.3272ZM9.98122 45.2149C9.00751 45.2225 8.05344 44.9426 7.24 44.4107C6.42656 43.8787 5.79038 43.1187 5.41213 42.2269C5.03388 41.3351 4.9306 40.3518 5.11538 39.4017C5.30015 38.4515 5.76467 37.5772 6.45003 36.8898C7.13538 36.2023 8.01071 35.7326 8.96502 35.5402C9.91932 35.3478 10.9096 35.4414 11.8104 35.8091C12.7111 36.1767 13.4817 36.802 14.0244 37.6055C14.5671 38.409 14.8576 39.3545 14.8589 40.3223C14.8589 41.6121 14.3465 42.8498 13.433 43.7661C12.5196 44.6824 11.279 45.2031 9.98122 45.2149ZM9.98122 15.2557C9.0096 15.262 8.05793 14.9817 7.24668 14.4503C6.43544 13.9188 5.80109 13.1601 5.42395 12.2701C5.04681 11.3801 4.94384 10.399 5.12806 9.45083C5.31228 8.50268 5.77542 7.63017 6.45885 6.94375C7.14227 6.25733 8.01525 5.78787 8.96727 5.59479C9.9193 5.40172 10.9076 5.49372 11.8069 5.85914C12.7063 6.22456 13.4764 6.84697 14.0197 7.64758C14.563 8.44819 14.855 9.39101 14.8589 10.3567C14.8624 11.6459 14.353 12.8843 13.4418 13.802C12.5305 14.7196 11.2913 15.2421 9.99414 15.2557H9.98122ZM35.9394 32.1037C35.8963 33.0342 35.508 33.9159 34.8495 34.5787C34.191 35.2414 33.3088 35.6384 32.3732 35.6929C31.683 35.739 30.9908 35.7497 30.2994 35.725C30.1029 35.7224 29.9067 35.7095 29.7115 35.6865V29.8051C30.5619 29.5969 31.3268 29.1327 31.9016 28.476C32.0017 28.3728 32.1386 28.3128 32.2828 28.3091C33.465 28.3091 34.6473 28.3091 35.8296 28.3476C35.8296 28.3476 35.8683 28.3476 35.9006 28.399C35.9317 28.4574 35.9535 28.5202 35.9652 28.5852C35.9652 29.7666 36.0298 30.948 35.9394 32.1037ZM45.9079 40.4507C45.8847 41.4126 45.5751 42.3461 45.0182 43.1333C44.4614 43.9204 43.6822 44.5258 42.7793 44.873C41.8764 45.2202 40.8902 45.2936 39.9453 45.0839C39.0004 44.8743 38.1392 44.391 37.4706 43.6951C36.802 42.9992 36.3559 42.1219 36.1888 41.1742C36.0216 40.2264 36.1409 39.2507 36.5315 38.3703C36.9221 37.4899 37.5666 36.7443 38.3834 36.2278C39.2002 35.7112 40.1528 35.4469 41.1207 35.4682C41.7644 35.4824 42.3989 35.6226 42.9881 35.8807C43.5772 36.1389 44.1093 36.51 44.5539 36.9728C44.9986 37.4356 45.3471 37.981 45.5794 38.5778C45.8117 39.1745 45.9233 39.811 45.9079 40.4507ZM40.3131 5.49616C41.2847 5.50384 42.2322 5.79784 43.0356 6.34095C43.839 6.88406 44.4622 7.65186 44.8263 8.54715C45.1904 9.44243 45.279 10.425 45.081 11.3703C44.883 12.3157 44.4071 13.1815 43.7138 13.858C43.0204 14.5345 42.1407 14.9913 41.186 15.1706C40.2313 15.35 39.2445 15.2438 38.3505 14.8655C37.4565 14.4871 36.6956 13.8537 36.1641 13.0454C35.6325 12.2371 35.3542 11.2902 35.3644 10.3246C35.3678 9.68384 35.4987 9.05012 35.7497 8.45994C36.0007 7.86977 36.3668 7.33482 36.8269 6.88596C37.2869 6.43709 37.8318 6.08318 38.4302 5.84465C39.0285 5.60612 39.6685 5.48768 40.3131 5.49616ZM29.718 15.4868C31.0101 15.5254 32.3732 15.2493 33.6395 15.8271C34.2715 16.0885 34.8194 16.5169 35.2237 17.0659C35.628 17.6149 35.8733 18.2635 35.9329 18.9412C35.9641 19.2334 35.9792 19.527 35.9782 19.8208C35.9782 21.7471 35.9782 23.7054 35.9782 25.6445V26.5113H32.7221C32.8672 25.4923 32.6768 24.454 32.1794 23.5513C31.6172 22.6796 30.7334 22.0618 29.718 21.8305V15.4868ZM22.9474 15.4868H27.8444V21.7085H22.9797C22.8004 19.6474 22.7918 17.5751 22.9538 15.5125L22.9474 15.4868ZM15.7117 19.0054C15.7765 18.0873 16.1733 17.2235 16.8287 16.5733C17.4841 15.9231 18.354 15.5304 19.2778 15.4676C19.8399 15.4226 20.4084 15.4676 21.048 15.4676V22.0938C20.7379 22.3249 20.402 22.5689 20.1112 22.7872C20.0012 22.8793 19.8665 22.9373 19.7236 22.9542C18.4315 22.9542 17.1071 22.9542 15.8086 22.9542C15.7569 22.8386 15.6987 22.7744 15.6987 22.7102C15.6987 21.4902 15.6406 20.2575 15.7181 19.0311L15.7117 19.0054ZM21.0415 35.6159C18.6447 36.1617 16.474 35.0316 15.8732 32.9256C15.7675 32.5734 15.7131 32.208 15.7117 31.8405C15.7117 29.6318 15.7117 27.4166 15.7117 25.2079C15.7235 25.0504 15.7451 24.8939 15.7763 24.7391H19.0065C18.7739 26.7296 19.1422 28.4824 21.0932 29.4584L21.0415 35.6159ZM20.6733 26.1838C20.6613 25.9699 20.6613 25.7556 20.6733 25.5417C20.6732 25.2833 20.7253 25.0274 20.8268 24.7895C20.9282 24.5515 21.0767 24.3362 21.2636 24.1565C21.4505 23.9767 21.6718 23.8362 21.9145 23.7433C22.1571 23.6504 22.4161 23.6069 22.676 23.6155H25.8675C26.8818 23.6155 27.8961 23.6155 28.9104 23.6155C29.1837 23.5926 29.4588 23.6276 29.7174 23.7182C29.9761 23.8088 30.2125 23.953 30.411 24.1411C30.6094 24.3292 30.7654 24.5571 30.8687 24.8096C30.972 25.0621 31.0202 25.3335 31.0101 25.6059C31.0101 25.7772 31.0101 25.9505 31.0101 26.126C31.0101 26.6369 30.8059 27.1268 30.4424 27.4881C30.0789 27.8493 29.5859 28.0522 29.0719 28.0522C26.9184 28.0865 24.7649 28.0865 22.6114 28.0522C22.1073 28.0525 21.623 27.8575 21.2611 27.5087C20.8993 27.1598 20.6884 26.6846 20.6733 26.1838ZM22.8828 35.6994V29.9977C24.534 29.7988 26.2023 29.7816 27.8573 29.9464V35.725L22.8828 35.6994Z" fill="white"/>
<path d="M51.4574 43.3786C51.3218 42.1779 51.1538 40.9901 50.9987 39.7958C50.568 36.457 50.1373 33.1204 49.7066 29.7858C49.5516 28.5723 49.3836 27.3588 49.2221 26.126H43.7953V26.9671C43.7953 29.574 43.7953 32.1808 43.7953 34.7876C43.7755 35.018 43.8206 35.2494 43.9255 35.4558C44.0305 35.6622 44.1912 35.8354 44.3897 35.9562C45.0136 36.4292 45.5295 37.0283 45.9033 37.714C46.2772 38.3997 46.5004 39.1563 46.5584 39.9341C46.6164 40.7118 46.5077 41.493 46.2396 42.2259C45.9715 42.9589 45.55 43.627 45.003 44.1861C44.4561 44.7453 43.796 45.1828 43.0663 45.4699C42.3367 45.7569 41.5541 45.8868 40.7702 45.8512C39.9864 45.8155 39.219 45.615 38.5188 45.263C37.8186 44.9109 37.2015 44.4153 36.7082 43.8088C36.6138 43.6409 36.4773 43.5001 36.3121 43.4C36.1468 43.2998 35.9584 43.2438 35.765 43.2373C32.819 43.2373 29.873 43.2373 26.9335 43.2373C26.7379 43.2507 26.5435 43.2786 26.3521 43.3208V48.7977C26.4601 48.8356 26.5701 48.8677 26.6815 48.894L34.04 49.7801C36.7663 50.1075 39.4862 50.4221 42.2125 50.756C43.2914 50.878 44.3768 51.1734 45.4427 50.756C46.8904 50.2577 48.1911 49.4103 49.2283 48.2897C50.2656 47.1692 51.0071 45.8105 51.3864 44.3353C51.4639 44.0226 51.4879 43.6992 51.4574 43.3786Z" fill="#E91E25"/>
<path d="M24.1683 43.2373C21.274 43.2373 18.3862 43.2373 15.4919 43.2373C15.2521 43.2195 15.0119 43.2647 14.7953 43.3684C14.5787 43.4721 14.3933 43.6306 14.2579 43.828C13.7467 44.4401 13.1079 44.9348 12.3857 45.2779C11.6636 45.6209 10.8751 45.8043 10.0747 45.8154C9.27437 45.8264 8.4811 45.6648 7.74962 45.3418C7.01814 45.0188 6.36584 44.5419 5.83767 43.9442C5.3095 43.3464 4.91803 42.6419 4.69023 41.8793C4.46243 41.1167 4.40373 40.314 4.51816 39.5266C4.6326 38.7393 4.91745 37.986 5.35309 37.3186C5.78873 36.6512 6.3648 36.0856 7.04158 35.6608C7.24314 35.5541 7.40838 35.3904 7.51645 35.1904C7.62453 34.9905 7.6706 34.7632 7.64887 34.5372C7.64887 32.0074 7.64887 29.4777 7.64887 26.9415C7.64887 26.6782 7.64887 26.415 7.61011 26.0875H2.28668C2.235 26.3636 2.17039 26.6012 2.13809 26.8387L1.20778 34.0749C0.833073 36.9963 0.464827 39.9178 0.0707379 42.8392C-0.0731836 43.6923 0.0252611 44.5685 0.354999 45.369C1.28971 47.6256 3.03509 49.4564 5.25203 50.5056C5.98019 50.8862 6.80373 51.049 7.62303 50.9743C9.76144 50.7303 11.8934 50.4671 14.0318 50.2102L22.1978 49.2343L25.0211 48.8811C25.0849 48.4281 25.1151 47.971 25.1115 47.5135C25.1704 46.0883 25.1164 44.6606 24.95 43.2437L24.1683 43.2373Z" fill="#E91E25"/>
<path d="M27.1662 7.49943C29.7504 7.49943 32.3346 7.45449 34.9187 7.46091C35.1236 7.47192 35.3278 7.42976 35.5113 7.33858C35.6948 7.24739 35.8513 7.11032 35.9653 6.94083C36.4756 6.25288 37.1505 5.70233 37.9289 5.33907C38.7073 4.97581 39.5646 4.81132 40.4231 4.86051C41.5134 4.8491 42.5803 5.1748 43.4761 5.79252C44.372 6.41025 45.0525 7.28945 45.4235 8.30845C45.8644 9.31001 45.9831 10.4225 45.7634 11.4937C45.5437 12.5649 44.9962 13.5425 44.196 14.2926C44.0655 14.4177 43.963 14.5686 43.8951 14.7357C43.8273 14.9027 43.7955 15.0821 43.8019 15.2621C43.8019 18.2413 43.8019 21.2142 43.8019 24.1934C43.8019 24.4053 43.8407 24.6107 43.86 24.8355C45.0207 24.9226 46.1851 24.9504 47.3487 24.9189C47.9622 24.9225 48.5753 24.8839 49.1835 24.8033C49.1835 24.7199 49.2352 24.63 49.2481 24.5401L49.8424 19.9043C50.327 16.1546 50.7921 12.3985 51.3154 8.64875C51.5545 7.43628 51.4007 6.17969 50.8761 5.05955C50.1778 3.69674 49.1956 2.4973 47.9947 1.54098C47.3071 0.935311 46.492 0.490097 45.6089 0.237915C44.7258 -0.0142675 43.7972 -0.0670365 42.891 0.083469C41.5989 0.288933 40.3068 0.404506 39.0147 0.558604L28.5293 1.79139C27.8058 1.88128 27.0757 1.98401 26.3457 2.08674V7.49943H27.1662Z" fill="#E91E25"/>
<path d="M0.516742 11.5573C0.895756 14.4594 1.27262 17.3595 1.64732 20.2574C1.8476 21.7662 2.04141 23.2815 2.24169 24.7519C2.76562 24.8292 3.29484 24.8657 3.8245 24.861C5.08776 24.9091 6.35286 24.8683 7.61034 24.7391C7.61034 24.5143 7.64264 24.2703 7.64264 24.0263C7.64264 21.4003 7.64264 18.7678 7.64264 16.1353C7.66097 15.9068 7.60899 15.6783 7.49361 15.4799C7.37823 15.2815 7.20489 15.1227 6.99659 15.0245C6.00697 14.4112 5.2398 13.5004 4.80647 12.4243C4.37313 11.3482 4.2962 10.1628 4.58684 9.04033C4.87459 7.83043 5.57076 6.75503 6.55939 5.9933C7.54802 5.23156 8.76941 4.82947 10.0201 4.854C10.8675 4.8456 11.7047 5.03739 12.4629 5.41359C13.221 5.78979 13.8784 6.33962 14.3809 7.01779C14.5295 7.21041 14.6716 7.40946 14.7556 7.52503H24.9761C25.1071 6.44298 25.1546 5.35255 25.1182 4.26329C25.135 3.53074 25.0875 2.79814 24.9761 2.07381C24.5497 2.01603 24.1233 1.92614 23.684 1.92614L15.5826 0.930921C13.0759 0.641988 10.5692 0.32095 8.06903 0.0512789C7.03049 -0.0998381 5.97031 0.0705407 5.03261 0.539256C3.01658 1.57765 1.40854 3.25717 0.465058 5.30987C0.0802113 6.08772 -0.0701098 6.95957 0.0322068 7.82038C0.200179 9.06601 0.35523 10.3052 0.516742 11.5573Z" fill="#E91E25"/>
<path d="M45.1457 10.4337C45.1534 9.47272 44.8742 8.53104 44.3435 7.7277C43.8127 6.92436 43.0543 6.29541 42.164 5.92034C41.2737 5.54528 40.2915 5.44093 39.3416 5.62048C38.3916 5.80004 37.5166 6.25545 36.827 6.92914C36.1374 7.60283 35.6642 8.46458 35.4673 9.40546C35.2703 10.3463 35.3584 11.3241 35.7205 12.2153C36.0825 13.1064 36.7023 13.8708 37.5014 14.412C38.3004 14.9532 39.243 15.2468 40.21 15.2557C40.853 15.2625 41.491 15.143 42.0874 14.9041C42.6839 14.6652 43.227 14.3116 43.6856 13.8636C44.1442 13.4155 44.5092 12.8819 44.7598 12.2934C45.0104 11.7048 45.1415 11.0728 45.1457 10.4337Z" fill="#E91E25"/>
<path d="M9.95569 35.4489C8.98222 35.4464 8.0299 35.7311 7.21942 36.2671C6.40895 36.803 5.77679 37.566 5.40308 38.4593C5.02937 39.3527 4.93092 40.3362 5.12021 41.2852C5.3095 42.2342 5.778 43.1061 6.46635 43.7902C7.15471 44.4743 8.03191 44.9399 8.98681 45.128C9.9417 45.3162 10.9313 45.2183 11.8302 44.8469C12.7291 44.4755 13.4968 43.8472 14.036 43.0417C14.5752 42.2362 14.8617 41.2898 14.8592 40.3223C14.8558 39.0308 14.3381 37.7933 13.4192 36.8801C12.5004 35.9669 11.2551 35.4523 9.95569 35.4489Z" fill="#E91E25"/>
<path d="M40.9207 45.2149C41.8902 45.2371 42.8446 44.9738 43.6638 44.4583C44.4831 43.9427 45.1307 43.1979 45.5252 42.3175C45.9196 41.4371 46.0433 40.4604 45.8806 39.5103C45.7179 38.5602 45.2762 37.6792 44.6109 36.978C43.9457 36.2768 43.0866 35.7867 42.1419 35.5695C41.1971 35.3523 40.2088 35.4176 39.3013 35.7573C38.3938 36.0969 37.6076 36.6956 37.0417 37.4782C36.4757 38.2608 36.1552 39.1922 36.1206 40.1554C36.0947 40.8025 36.199 41.4482 36.4274 42.0548C36.6558 42.6613 37.0037 43.2165 37.4508 43.6877C37.8978 44.1589 38.435 44.5367 39.0308 44.7989C39.6267 45.0612 40.2692 45.2026 40.9207 45.2149Z" fill="#E91E25"/>
<path d="M9.94898 5.49616C8.97706 5.49617 8.02701 5.78285 7.21915 6.31991C6.4113 6.85696 5.782 7.62021 5.41095 8.513C5.0399 9.40578 4.94381 10.3879 5.13484 11.335C5.32586 12.2821 5.79542 13.1516 6.48403 13.8333C7.17264 14.5149 8.04932 14.9782 9.00303 15.1643C9.95675 15.3504 10.9446 15.251 11.8414 14.8787C12.7382 14.5064 13.5037 13.878 14.0409 13.0729C14.5781 12.2679 14.8628 11.3226 14.8589 10.3567C14.8521 9.06633 14.332 7.83107 13.4121 6.92046C12.4923 6.00985 11.2473 5.49784 9.94898 5.49616Z" fill="#E91E25"/>
<path d="M32.1795 23.5513C32.6769 24.454 32.8672 25.4923 32.7222 26.5113H35.9912V25.6445C35.9912 23.7182 35.9912 21.792 35.9912 19.8208C35.9922 19.527 35.9771 19.2334 35.9459 18.9412C35.8863 18.2635 35.641 17.6149 35.2367 17.0659C34.8324 16.5169 34.2845 16.0885 33.6525 15.8271C32.3604 15.2493 31.0683 15.5254 29.731 15.4868V21.8305C30.7417 22.0649 31.6203 22.6823 32.1795 23.5513Z" fill="#252526"/>
<path d="M18.9613 24.7648H15.7311C15.6999 24.9196 15.6784 25.0761 15.6665 25.2335C15.6665 27.4423 15.6665 29.6574 15.6665 31.8662C15.668 32.2337 15.7224 32.5991 15.828 32.9513C16.4741 35.0573 18.6254 36.1616 20.9964 35.6416V29.4841C19.097 28.5081 18.7352 26.7553 18.9613 24.7648Z" fill="#252526"/>
<path d="M29.072 28.0779C29.5861 28.0779 30.079 27.875 30.4425 27.5138C30.806 27.1525 31.0102 26.6626 31.0102 26.1517C31.0102 25.9805 31.0102 25.8071 31.0102 25.6316C31.0254 25.3596 30.9823 25.0874 30.8839 24.8331C30.7854 24.5788 30.6338 24.3481 30.439 24.1564C30.2442 23.9646 30.0107 23.8161 29.7539 23.7207C29.4971 23.6252 29.2229 23.585 28.9493 23.6027C27.935 23.6027 26.9207 23.6027 25.9064 23.6027H22.6826C22.4227 23.5941 22.1637 23.6375 21.9211 23.7304C21.6784 23.8234 21.4571 23.9639 21.2702 24.1436C21.0833 24.3234 20.9348 24.5386 20.8333 24.7766C20.7319 25.0146 20.6797 25.2704 20.6799 25.5289C20.6679 25.7428 20.6679 25.9571 20.6799 26.171C20.6884 26.6762 20.8963 27.158 21.2588 27.5123C21.6214 27.8666 22.1095 28.0652 22.618 28.0651C24.7672 28.1079 26.9185 28.1122 29.072 28.0779Z" fill="#E91E25"/>
<path d="M35.9009 28.399C35.9009 28.399 35.8492 28.3476 35.8299 28.3476C34.6476 28.3476 33.4653 28.3091 32.2831 28.3091C32.1389 28.3128 32.002 28.3728 31.9019 28.476C31.3288 29.1316 30.5663 29.5957 29.7183 29.8051V35.7058C29.9134 35.7288 30.1097 35.7416 30.3062 35.7443C30.9975 35.769 31.6897 35.7583 32.38 35.7122C33.3176 35.6557 34.2008 35.2554 34.8585 34.5887C35.5161 33.9221 35.9014 33.0366 35.9397 32.1037C36.0301 30.9287 35.9397 29.7473 35.9397 28.5659C35.9343 28.5088 35.9213 28.4526 35.9009 28.399Z" fill="#252526"/>
<path d="M15.815 22.9606C17.1071 22.9606 18.3991 22.9606 19.73 22.9606C19.8728 22.9438 20.0076 22.8857 20.1176 22.7937C20.4342 22.5753 20.7637 22.3314 21.0544 22.1002V15.4868C20.4084 15.4868 19.8463 15.4483 19.2842 15.4868C18.3603 15.5497 17.4905 15.9424 16.8351 16.5926C16.1797 17.2428 15.7829 18.1066 15.718 19.0247C15.6405 20.251 15.718 21.4838 15.718 22.7102C15.7051 22.7808 15.7633 22.845 15.815 22.9606Z" fill="#252526"/>
<path d="M27.8508 21.7342V15.5125H22.9538C22.7817 17.5829 22.7817 19.6639 22.9538 21.7342H27.8508Z" fill="#252526"/>
<path d="M27.8574 29.9464C26.2023 29.7816 24.5341 29.7988 22.8828 29.9977V35.6994H27.8574V29.9464Z" fill="#252526"/>
</g>
<defs>
<clipPath id="clip0_100_310">
<rect width="160" height="51" fill="white"/>
</clipPath>
</defs>
</svg>
